<svg width="85" height="85" viewBox="0 0 85 85" fill="none" xmlns="http://www.w3.org/2000/svg">
<path d="M81.3571 34H3.64286C0.291428 34 0 37.7995 0 42.5C0 47.2005 0.291428 51 3.64286 51H81.3571C84.7086 51 85 47.2005 85 42.5C85 37.7995 84.7086 34 81.3571 34ZM81.3571 68H3.64286C0.291428 68 0 71.7995 0 76.5C0 81.2005 0.291428 85 3.64286 85H81.3571C84.7086 85 85 81.2005 85 76.5C85 71.7995 84.7086 68 81.3571 68ZM3.64286 17H81.3571C84.7086 17 85 13.2005 85 8.5C85 3.7995 84.7086 0 81.3571 0H3.64286C0.291428 0 0 3.7995 0 8.5C0 13.2005 0.291428 17 3.64286 17Z" fill="#323332"/>
</svg>
