<svg width="100" height="53" viewBox="0 0 100 53" fill="none" xmlns="http://www.w3.org/2000/svg">
<path fill-rule="evenodd" clip-rule="evenodd" d="M73.8497 1.44684C71.0924 3.69652 70.2761 12.1956 72.6084 14.3559C74.0356 15.6787 74.8693 15.7379 76.4555 14.6323C79.3608 12.6071 80.1891 15.0354 77.3497 17.2562C73.4799 20.2819 68.8975 16.6853 68.865 10.5976C68.8467 6.9612 66.802 5.9824 59.1175 5.93171C56.4414 5.91361 51.167 4.82015 47.3977 3.501C39.7283 0.818035 27.5706 0.337687 20.7576 2.44857C14.5544 4.37118 8.84319 11.2663 6.82988 19.2608C3.70288 31.6872 4.06942 34.9651 9.29948 41.2978C11.635 44.1256 13.8765 47.9153 14.283 49.7196C15.0096 52.9553 15.1415 53 23.823 52.9819C29.9061 52.9686 32.126 52.6017 31.0047 51.7931C30.1127 51.1498 28.4789 50.6151 27.3749 50.6043C25.9909 50.5922 25.5714 49.9924 26.0233 48.6768C26.3845 47.6268 26.6797 46.5551 26.6797 46.2944C26.6797 46.0337 28.1156 44.9922 29.8694 43.9796C31.9584 42.7739 36.0823 42.1378 41.8173 42.1378C51.62 42.1378 55.9515 43.8951 60.0063 49.5181C61.4973 51.5843 63.5582 53 65.0752 53C67.3534 53 67.5708 52.574 67.0702 49.0775C66.6117 45.872 67.0788 44.5492 69.6273 41.8385C72.5586 38.7223 73.4096 38.5038 83.7216 38.2154C95.9874 37.8726 99.7426 36.1081 93.2767 33.7256C88.3613 31.9153 88.0671 29.5473 92.9069 30.7494C98.8906 32.2351 99.6485 32.0336 99.9794 28.8618C100.616 22.756 86.2906 6.59792 83.9649 10.798C82.6803 13.1177 81.5472 11.5547 81.0973 6.84052C80.8908 4.68015 79.9047 2.23495 78.9046 1.40459C76.6361 -0.476979 76.2025 -0.473359 73.8497 1.44684ZM87.2303 20.4134C87.2303 21.0772 86.5004 21.6203 85.6084 21.6203C84.7163 21.6203 83.9865 21.0772 83.9865 20.4134C83.9865 19.7496 84.7163 19.2065 85.6084 19.2065C86.5004 19.2065 87.2303 19.7496 87.2303 20.4134ZM0.188779 34.8964C-0.17885 35.5602 0.00712719 36.1033 0.601821 36.1033C1.19651 36.1033 1.98367 35.5602 2.3513 34.8964C2.71893 34.2325 2.53295 33.6894 1.93826 33.6894C1.34357 33.6894 0.556408 34.2325 0.188779 34.8964Z" fill="#323332"/>
</svg>
