<svg width="100" height="100" viewBox="0 0 100 100" fill="none" xmlns="http://www.w3.org/2000/svg">
<path fill-rule="evenodd" clip-rule="evenodd" d="M73.596 1.74262C73.0398 3.00925 72.2198 5.73669 71.7741 7.80113L70.9636 11.5568L64.7527 8.06572C60.8617 5.87854 56.3777 4.32417 52.7434 3.90263L46.9437 3.22958L50.1846 8.26995C51.9673 11.0417 55.7977 15.753 58.6975 18.739C64.6315 24.8499 66.8812 29.9345 64.9809 32.9416C64.3035 34.0131 62.9605 37.1389 61.9955 39.8875C60.7001 43.5797 59.249 45.3997 56.4418 46.8535C54.3525 47.935 51.9376 48.595 51.0759 48.3203C47.9218 47.3142 31.1931 50.9683 25.5265 53.9019C22.3783 55.5318 19.4939 56.8648 19.1183 56.8648C17.9417 56.8648 12.2692 62.2684 8.23918 67.2272C4.4587 71.8783 2.20063 78.5967 0.364463 90.6564C-0.368815 95.4805 -0.220258 95.8859 2.93866 97.6828C5.80285 99.3116 8.57076 99.5923 21.9148 99.6064C34.535 99.6194 37.9613 99.3136 39.7416 98.0148C40.9539 97.1304 42.8827 96.1264 44.026 95.7823C46.3269 95.0922 46.813 92.5659 44.8437 91.5357C43.6778 90.925 50.1751 86.0406 52.1527 86.0406C52.6091 86.0406 56.3836 88.9743 60.5385 92.5609C69.5612 100.349 74.7714 101.714 81.6312 98.0882L85.6613 95.9574L80.192 91.754C73.2633 86.4279 72.8057 83.7065 77.9529 78.4368C80.0838 76.2556 82.4405 72.66 83.1893 70.4466C83.9392 68.2333 84.9767 65.9415 85.4937 65.3529C86.0118 64.7644 86.3826 62.0641 86.3185 59.3508C86.2281 55.5589 86.7035 54.1776 88.3697 53.3778C89.563 52.8053 92.6672 50.7047 95.2687 48.7086L100 45.0788L97.2095 39.151C93.5895 31.4597 92.029 29.5834 87.6662 27.6729C84.1876 26.1507 84.0557 25.8368 83.6373 18.0911C83.1643 9.33135 80.3607 2.04544 76.8512 0.455864C75.0174 -0.375144 74.4208 -0.139726 73.596 1.74262Z" fill="#323332"/>
</svg>
