<svg width="100" height="100" viewBox="0 0 100 100" fill="none" xmlns="http://www.w3.org/2000/svg">
<path fill-rule="evenodd" clip-rule="evenodd" d="M67.4411 2.59265C66.6564 4.1081 63.0086 13.348 59.3356 23.1258C55.6616 32.9046 52.1238 40.9045 51.4742 40.9045C48.2737 40.9045 37.0987 47.5012 32.7239 51.9724C25.0846 59.781 22.1952 66.6381 22.1952 76.9628C22.1952 84.3998 22.5598 86.0945 25.0773 90.3614L27.9593 95.2473L22.6457 94.7585C16.3348 94.1786 9.81338 90.2232 6.04298 84.6883C3.42288 80.839 1.07096 79.9296 0.0861944 82.3825C-0.730952 84.4178 4.41707 91.3891 8.95852 94.398C16.8325 99.6144 20.0581 100.06 47.8914 99.7676L73.5288 99.4992L73.8462 96.3782C74.0956 93.9282 73.4848 92.7092 71.004 90.714C69.266 89.3157 67.3269 88.0076 66.6931 87.8053C65.9073 87.5549 65.8151 85.8852 66.4008 82.5418L67.2598 77.6449L74.9902 88.823L82.7196 100H88.3715C92.1817 100 94.2026 99.5543 94.5724 98.6328C94.8741 97.8806 91.7952 92.0942 87.7293 85.774L80.3384 74.2845V55.6794V37.0744L84.7908 36.3792C87.2401 35.9976 90.7664 34.7987 92.6291 33.7169C96.6719 31.3671 100.649 26.331 99.9111 24.495C99.6209 23.7729 96.7483 22.1583 93.5279 20.9092C90.3065 19.6592 87.6717 18.0256 87.6717 17.2804C87.6717 16.5342 86.2574 14.9246 84.5289 13.7026C82.6704 12.3895 81.386 10.5675 81.386 9.24741C81.386 4.02096 79.3494 2.57763 76.0274 5.45127C74.2946 6.95069 74.0662 6.81748 72.5943 3.44804C70.7044 -0.87695 69.354 -1.10031 67.4411 2.59265Z" fill="#323332"/>
</svg>
