<svg width="100" height="100" viewBox="0 0 100 100" fill="none" xmlns="http://www.w3.org/2000/svg">
<path fill-rule="evenodd" clip-rule="evenodd" d="M86.3481 0.948871C86.3481 1.43341 87.7922 4.43473 89.5561 7.61926C93.4013 14.56 94.7557 28.2601 92.4878 37.2831C90.564 44.9396 89.4398 45.5443 81.3811 43.2578C73.652 41.0643 63.7822 39.6107 46.3698 38.103C39.3736 37.4974 31.5488 36.5453 28.9805 35.9887C24.7004 35.0587 24.3793 34.7513 25.1195 32.2876C25.5641 30.811 26.3722 27.0558 26.9161 23.9454C27.4601 20.8339 28.2948 17.7675 28.7709 17.1308C30.0877 15.3709 28.3881 11.0811 26.3722 11.0811C25.3945 11.0811 23.2514 12.838 21.6111 14.9854C19.9708 17.1328 17.9404 19.079 17.0984 19.3112C13.7427 20.2352 9.9847 18.6975 7.66717 15.4519C5.23092 12.0382 2.12351 10.2692 0.673391 11.4685C-0.813076 12.6959 0.366891 26.2499 2.2168 29.2062C3.24048 30.841 4.60338 37.192 5.26121 43.3839C6.65681 56.5315 9.09064 61.565 16.3413 66.3113C21.7735 69.8662 25.655 75.9139 28.9393 85.9411L31.0727 92.4513L28.3287 94.2873C26.8192 95.2964 25.7689 96.9232 25.993 97.9013C26.5163 100.182 32.1424 100.782 34.5265 98.8113C36.6575 97.0504 39.6111 83.0639 38.4771 80.1106C38.0398 78.9713 38.0519 75.8128 38.505 73.0918C39.2718 68.4867 39.5662 68.1443 42.7609 68.1443C49.2131 68.1443 71.8106 79.0254 71.8106 82.1318C71.8106 84.8969 65.7944 89.1676 61.8996 89.1676C57.7794 89.1676 56.4104 90.8855 58.8951 92.9388C61.8971 95.4206 69.5681 92.9989 76.7037 87.3156C79.9734 84.7107 82.8773 83.0689 83.1547 83.6685C83.6199 84.6697 81.0504 92.0929 80.0994 92.4953C74.3328 94.941 72.9966 97.3567 77.055 98.0024C82.3297 98.8414 84.6387 97.3137 87.8431 90.8645C92.609 81.2759 93.0923 77.9782 90.0673 75.7167C86.8145 73.283 86.9054 71.7453 90.6161 66.5125C92.4696 63.8986 94.0966 59.5288 94.7484 55.4122C95.3396 51.6781 96.7182 45.9197 97.8122 42.6161C102.05 29.8149 99.8656 9.3632 93.5503 2.72985C91.1637 0.221065 86.3481 -0.969254 86.3481 0.948871Z" fill="#323332"/>
</svg>
