<svg width="75" height="75" viewBox="0 0 75 75" fill="none" xmlns="http://www.w3.org/2000/svg">
<circle cx="37.5" cy="37.5" r="37.5" fill="#187CA1"/>
<path d="M28.0629 15.031H46.9369C54.127 15.031 59.9689 20.8729 59.9689 28.063V46.937C59.9689 50.3933 58.5959 53.7081 56.1519 56.152C53.7079 58.596 50.3932 59.969 46.9369 59.969H28.0629C20.8728 59.969 15.0309 54.1271 15.0309 46.937V28.063C15.0309 24.6067 16.4039 21.292 18.8479 18.848C21.2919 16.404 24.6066 15.031 28.0629 15.031ZM27.6135 19.5248C25.4682 19.5248 23.4108 20.377 21.8939 21.894C20.3769 23.4109 19.5247 25.4684 19.5247 27.6137V47.3864C19.5247 51.8577 23.1422 55.4752 27.6135 55.4752H47.3863C49.5315 55.4752 51.589 54.623 53.1059 53.1061C54.6229 51.5891 55.4751 49.5317 55.4751 47.3864V27.6137C55.4751 23.1423 51.8576 19.5248 47.3863 19.5248H27.6135ZM49.2961 22.8952C50.041 22.8952 50.7554 23.1911 51.2821 23.7178C51.8088 24.2445 52.1047 24.9589 52.1047 25.7038C52.1047 26.4487 51.8088 27.1631 51.2821 27.6898C50.7554 28.2165 50.041 28.5124 49.2961 28.5124C48.5512 28.5124 47.8368 28.2165 47.3101 27.6898C46.7834 27.1631 46.4875 26.4487 46.4875 25.7038C46.4875 24.9589 46.7834 24.2445 47.3101 23.7178C47.8368 23.1911 48.5512 22.8952 49.2961 22.8952ZM37.4999 26.2655C40.4795 26.2655 43.337 27.4491 45.4439 29.556C47.5508 31.6629 48.7344 34.5204 48.7344 37.5C48.7344 40.4796 47.5508 43.3371 45.4439 45.444C43.337 47.5509 40.4795 48.7345 37.4999 48.7345C34.5203 48.7345 31.6628 47.5509 29.5559 45.444C27.449 43.3371 26.2654 40.4796 26.2654 37.5C26.2654 34.5204 27.449 31.6629 29.5559 29.556C31.6628 27.4491 34.5203 26.2655 37.4999 26.2655ZM37.4999 30.7593C35.7121 30.7593 33.9976 31.4695 32.7335 32.7336C31.4694 33.9977 30.7592 35.7123 30.7592 37.5C30.7592 39.2878 31.4694 41.0023 32.7335 42.2664C33.9976 43.5305 35.7121 44.2407 37.4999 44.2407C39.2876 44.2407 41.0022 43.5305 42.2663 42.2664C43.5304 41.0023 44.2406 39.2878 44.2406 37.5C44.2406 35.7123 43.5304 33.9977 42.2663 32.7336C41.0022 31.4695 39.2876 30.7593 37.4999 30.7593Z" fill="white"/>
</svg>
