<svg width="75" height="75" viewBox="0 0 75 75" fill="none" xmlns="http://www.w3.org/2000/svg">
<circle cx="37.5" cy="37.5" r="37.5" fill="#1B9CCC"/>
<path d="M28.063 15.031H46.937C54.1271 15.031 59.969 20.8729 59.969 28.063V46.937C59.969 50.3933 58.596 53.708 56.152 56.152C53.7081 58.596 50.3933 59.969 46.937 59.969H28.063C20.8729 59.969 15.031 54.1271 15.031 46.937V28.063C15.031 24.6067 16.404 21.292 18.848 18.848C21.292 16.404 24.6067 15.031 28.063 15.031ZM27.6137 19.5248C25.4684 19.5248 23.4109 20.377 21.894 21.894C20.377 23.4109 19.5248 25.4683 19.5248 27.6136V47.3864C19.5248 51.8577 23.1423 55.4752 27.6137 55.4752H47.3864C49.5317 55.4752 51.5891 54.623 53.1061 53.106C54.623 51.5891 55.4752 49.5317 55.4752 47.3864V27.6136C55.4752 23.1423 51.8577 19.5248 47.3864 19.5248H27.6137ZM49.2962 22.8951C50.0411 22.8951 50.7555 23.1911 51.2822 23.7178C51.809 24.2445 52.1049 24.9589 52.1049 25.7038C52.1049 26.4487 51.809 27.1631 51.2822 27.6898C50.7555 28.2165 50.0411 28.5124 49.2962 28.5124C48.5513 28.5124 47.837 28.2165 47.3102 27.6898C46.7835 27.1631 46.4876 26.4487 46.4876 25.7038C46.4876 24.9589 46.7835 24.2445 47.3102 23.7178C47.837 23.1911 48.5513 22.8951 49.2962 22.8951ZM37.5 26.2655C40.4796 26.2655 43.3371 27.4491 45.444 29.556C47.5509 31.6629 48.7345 34.5204 48.7345 37.5C48.7345 40.4796 47.5509 43.3371 45.444 45.444C43.3371 47.5509 40.4796 48.7345 37.5 48.7345C34.5204 48.7345 31.6629 47.5509 29.556 45.444C27.4491 43.3371 26.2655 40.4796 26.2655 37.5C26.2655 34.5204 27.4491 31.6629 29.556 29.556C31.6629 27.4491 34.5204 26.2655 37.5 26.2655ZM37.5 30.7593C35.7123 30.7593 33.9977 31.4695 32.7336 32.7336C31.4695 33.9977 30.7593 35.7123 30.7593 37.5C30.7593 39.2877 31.4695 41.0023 32.7336 42.2664C33.9977 43.5305 35.7123 44.2407 37.5 44.2407C39.2878 44.2407 41.0023 43.5305 42.2664 42.2664C43.5305 41.0023 44.2407 39.2877 44.2407 37.5C44.2407 35.7123 43.5305 33.9977 42.2664 32.7336C41.0023 31.4695 39.2878 30.7593 37.5 30.7593Z" fill="white"/>
</svg>
