<svg width="75" height="75" viewBox="0 0 75 75" fill="none" xmlns="http://www.w3.org/2000/svg">
<circle cx="37.5" cy="37.5" r="37.5" fill="#187CA1"/>
<path d="M27.3554 22.7273C27.3549 23.8233 26.919 24.8741 26.1436 25.6486C25.3683 26.4232 24.317 26.858 23.2211 26.8575C22.1252 26.8569 21.0743 26.421 20.2998 25.6457C19.5252 24.8704 19.0904 23.8191 19.0909 22.7232C19.0915 21.6272 19.5274 20.5764 20.3027 19.8019C21.078 19.0273 22.1293 18.5925 23.2252 18.593C24.3212 18.5936 25.372 19.0295 26.1466 19.8048C26.9211 20.5801 27.356 21.6314 27.3554 22.7273ZM27.4794 29.9174H19.2149V55.7852H27.4794V29.9174ZM40.5372 29.9174H32.3141V55.7852H40.4546V42.2108C40.4546 34.6488 50.31 33.9463 50.31 42.2108V55.7852H58.4711V39.4009C58.4711 26.6529 43.8843 27.1281 40.4546 33.3885L40.5372 29.9174Z" fill="white"/>
</svg>
