<svg width="75" height="75" viewBox="0 0 75 75" fill="none" xmlns="http://www.w3.org/2000/svg">
<circle cx="37.5" cy="37.5" r="37.5" fill="#1B9CCC"/>
<path d="M27.3555 22.7273C27.3549 23.8232 26.919 24.874 26.1437 25.6486C25.3684 26.4232 24.3171 26.858 23.2212 26.8574C22.1252 26.8569 21.0744 26.421 20.2998 25.6457C19.5253 24.8703 19.0905 23.8191 19.091 22.7231C19.0916 21.6272 19.5274 20.5764 20.3028 19.8018C21.0781 19.0273 22.1294 18.5924 23.2253 18.593C24.3212 18.5935 25.3721 19.0294 26.1466 19.8047C26.9212 20.5801 27.356 21.6313 27.3555 22.7273ZM27.4794 29.9174H19.215V55.7851H27.4794V29.9174ZM40.5373 29.9174H32.3141V55.7851H40.4546V42.2108C40.4546 34.6488 50.31 33.9463 50.31 42.2108V55.7851H58.4712V39.4008C58.4712 26.6529 43.8844 27.1281 40.4546 33.3884L40.5373 29.9174Z" fill="white"/>
</svg>
