<svg width="50" height="64" viewBox="0 0 50 64" fill="none" xmlns="http://www.w3.org/2000/svg">
<path d="M25 31.6667C26.7188 31.6667 28.1906 31.046 29.4156 29.8047C30.6406 28.5633 31.2521 27.0729 31.25 25.3333C31.25 23.5917 30.6375 22.1002 29.4125 20.8588C28.1875 19.6175 26.7167 18.9979 25 19C23.2812 19 21.8094 19.6207 20.5844 20.862C19.3594 22.1033 18.7479 23.5938 18.75 25.3333C18.75 27.075 19.3625 28.5665 20.5875 29.8078C21.8125 31.0492 23.2833 31.6688 25 31.6667ZM25 63.3333C16.6146 56.1028 10.3521 49.3873 6.2125 43.187C2.07292 36.9867 0.00208333 31.2466 0 25.9667C0 18.05 2.51354 11.7431 7.54063 7.04583C12.5677 2.34861 18.3875 0 25 0C31.6146 0 37.4354 2.34861 42.4625 7.04583C47.4896 11.7431 50.0021 18.05 50 25.9667C50 31.2444 47.9292 36.9846 43.7875 43.187C39.6458 49.3894 33.3833 56.1049 25 63.3333Z" fill="#FCFCFC"/>
</svg>
