<svg width="50" height="39" viewBox="0 0 50 39" fill="none" xmlns="http://www.w3.org/2000/svg">
<path d="M45 0H5C2.25 0 0.025 2.1875 0.025 4.86111L0 34.0278C0 36.7014 2.25 38.8889 5 38.8889H45C47.75 38.8889 50 36.7014 50 34.0278V4.86111C50 2.1875 47.75 0 45 0ZM44 10.3299L26.325 21.0729C25.525 21.559 24.475 21.559 23.675 21.0729L6 10.3299C5.74932 10.193 5.5298 10.0082 5.35472 9.78652C5.17965 9.56484 5.05266 9.31092 4.98144 9.04014C4.91022 8.76936 4.89626 8.48734 4.94039 8.21116C4.98453 7.93498 5.08584 7.67038 5.2382 7.43337C5.39057 7.19636 5.59081 6.99187 5.82682 6.83228C6.06282 6.67269 6.32968 6.56131 6.61124 6.50489C6.8928 6.44847 7.18321 6.44818 7.46489 6.50404C7.74657 6.5599 8.01366 6.67074 8.25 6.82986L25 17.0139L41.75 6.82986C41.9863 6.67074 42.2534 6.5599 42.5351 6.50404C42.8168 6.44818 43.1072 6.44847 43.3888 6.50489C43.6703 6.56131 43.9372 6.67269 44.1732 6.83228C44.4092 6.99187 44.6094 7.19636 44.7618 7.43337C44.9142 7.67038 45.0155 7.93498 45.0596 8.21116C45.1037 8.48734 45.0898 8.76936 45.0186 9.04014C44.9473 9.31092 44.8204 9.56484 44.6453 9.78652C44.4702 10.0082 44.2507 10.193 44 10.3299Z" fill="#FCFCFC"/>
</svg>
