<svg width="85" height="85" viewBox="0 0 85 85" fill="none" xmlns="http://www.w3.org/2000/svg">
<path fill-rule="evenodd" clip-rule="evenodd" d="M42.5 5.3125C36.8641 5.3125 31.4591 7.55134 27.474 11.5365C23.4888 15.5216 21.25 20.9267 21.25 26.5625C21.25 32.1984 23.4888 37.6034 27.474 41.5885C31.4591 45.5737 36.8641 47.8125 42.5 47.8125C48.1359 47.8125 53.5409 45.5737 57.526 41.5885C61.5112 37.6034 63.75 32.1984 63.75 26.5625C63.75 20.9267 61.5112 15.5216 57.526 11.5365C53.5409 7.55134 48.1359 5.3125 42.5 5.3125ZM15.9375 26.5625C15.9376 21.4222 17.4291 16.3923 20.2312 12.0829C23.0333 7.77355 27.0256 4.36976 31.7239 2.2844C36.4222 0.199043 41.6246 -0.478297 46.7003 0.334529C51.7759 1.14736 56.5067 3.41543 60.3188 6.86367C64.1309 10.3119 66.8606 14.7922 68.1769 19.7611C69.4931 24.73 69.3394 29.9741 67.7342 34.8574C66.1291 39.7406 63.1416 44.0533 59.1339 47.2722C55.1263 50.4912 50.2708 52.4782 45.1562 52.9922V63.75H55.7812C56.4857 63.75 57.1614 64.0299 57.6595 64.528C58.1576 65.0261 58.4375 65.7018 58.4375 66.4063C58.4375 67.1107 58.1576 67.7864 57.6595 68.2845C57.1614 68.7826 56.4857 69.0625 55.7812 69.0625H45.1562V82.3438C45.1562 83.0482 44.8764 83.7239 44.3783 84.222C43.8801 84.7201 43.2045 85 42.5 85C41.7955 85 41.1199 84.7201 40.6217 84.222C40.1236 83.7239 39.8438 83.0482 39.8438 82.3438V69.0625H29.2188C28.5143 69.0625 27.8386 68.7826 27.3405 68.2845C26.8424 67.7864 26.5625 67.1107 26.5625 66.4063C26.5625 65.7018 26.8424 65.0261 27.3405 64.528C27.8386 64.0299 28.5143 63.75 29.2188 63.75H39.8438V52.9922C33.2918 52.3337 27.2179 49.265 22.8006 44.3814C18.3833 39.4978 15.9374 33.1475 15.9375 26.5625Z" fill="#323332"/>
</svg>
