<svg width="50" height="50" viewBox="0 0 50 50" fill="none" xmlns="http://www.w3.org/2000/svg">
<path d="M2.91667 50C2.08333 50 1.38889 49.7222 0.833333 49.1667C0.277778 48.6111 0 47.9167 0 47.0833V35.8333C0 35.1852 0.208333 34.6176 0.625 34.1306C1.04167 33.6435 1.57407 33.3315 2.22222 33.1944L11.8056 31.25C12.4537 31.1574 13.1139 31.2157 13.7861 31.425C14.4583 31.6343 15.0019 31.9463 15.4167 32.3611L21.9444 38.8889C25.463 36.7593 28.6806 34.2361 31.5972 31.3194C34.5139 28.4028 36.9444 25.2778 38.8889 21.9444L32.2222 15.1389C31.8056 14.7222 31.5389 14.2472 31.4222 13.7139C31.3056 13.1806 31.2944 12.5907 31.3889 11.9444L33.1944 2.22222C33.287 1.57407 33.588 1.04167 34.0972 0.625C34.6065 0.208333 35.1852 0 35.8333 0H47.0833C47.9167 0 48.6111 0.277778 49.1667 0.833333C49.7222 1.38889 50 2.08333 50 2.91667C50 8.88889 48.6685 14.7111 46.0056 20.3833C43.3426 26.0556 39.8241 31.0787 35.45 35.4528C31.0759 39.8268 26.0528 43.3454 20.3806 46.0083C14.7083 48.6713 8.88704 50.0018 2.91667 50Z" fill="#FCFCFC"/>
</svg>
