<svg width="75" height="75" viewBox="0 0 75 75" fill="none" xmlns="http://www.w3.org/2000/svg">
<circle cx="37.5" cy="37.5" r="37.5" fill="#1B9CCC"/>
<path d="M33.0062 44.2407L44.6676 37.5L33.0062 30.7593V44.2407ZM58.9804 26.6475C59.2725 27.7035 59.4747 29.1191 59.6095 30.9166C59.7668 32.7141 59.8342 34.2645 59.8342 35.6126L59.969 37.5C59.969 42.4207 59.6095 46.0382 58.9804 48.3525C58.4186 50.3747 57.1154 51.6779 55.0932 52.2397C54.0372 52.5318 52.1048 52.734 49.1389 52.8688C46.218 53.0261 43.5441 53.0935 41.0726 53.0935L37.5 53.2283C28.0855 53.2283 22.2211 52.8688 19.9068 52.2397C17.8845 51.6779 16.5813 50.3747 16.0196 48.3525C15.7275 47.2965 15.5253 45.8809 15.3905 44.0834C15.2332 42.2859 15.1658 40.7355 15.1658 39.3874L15.031 37.5C15.031 32.5793 15.3905 28.9618 16.0196 26.6475C16.5813 24.6253 17.8845 23.3221 19.9068 22.7603C20.9628 22.4682 22.8951 22.266 25.861 22.1312C28.782 21.9739 31.4558 21.9065 33.9274 21.9065L37.5 21.7717C46.9145 21.7717 52.7789 22.1312 55.0932 22.7603C57.1154 23.3221 58.4186 24.6253 58.9804 26.6475Z" fill="white"/>
</svg>
