<svg width="75" height="75" viewBox="0 0 75 75" fill="none" xmlns="http://www.w3.org/2000/svg">
<circle cx="37.5" cy="37.5" r="37.5" fill="#187CA1"/>
<path d="M33.0061 44.2407L44.6675 37.5L33.0061 30.7593V44.2407ZM58.9803 26.6474C59.2724 27.7035 59.4746 29.119 59.6094 30.9166C59.7667 32.7141 59.8341 34.2644 59.8341 35.6126L59.9689 37.5C59.9689 42.4207 59.6094 46.0382 58.9803 48.3525C58.4185 50.3747 57.1153 51.6779 55.0931 52.2396C54.0371 52.5317 52.1048 52.734 49.1388 52.8688C46.2179 53.0261 43.5441 53.0935 41.0725 53.0935L37.4999 53.2283C28.0854 53.2283 22.221 52.8688 19.9067 52.2396C17.8844 51.6779 16.5812 50.3747 16.0195 48.3525C15.7274 47.2965 15.5252 45.8809 15.3904 44.0834C15.2331 42.2859 15.1657 40.7355 15.1657 39.3874L15.0309 37.5C15.0309 32.5793 15.3904 28.9618 16.0195 26.6474C16.5812 24.6252 17.8844 23.322 19.9067 22.7603C20.9627 22.4682 22.895 22.266 25.8609 22.1312C28.7819 21.9739 31.4557 21.9065 33.9273 21.9065L37.4999 21.7717C46.9144 21.7717 52.7788 22.1312 55.0931 22.7603C57.1153 23.322 58.4185 24.6252 58.9803 26.6474Z" fill="white"/>
</svg>
